<?xml version="1.0" encoding="utf-8"?>
<!-- Generator: Adobe Illustrator 18.0.0, SVG Export Plug-In . SVG Version: 6.00 Build 0)  -->
<!DOCTYPE svg PUBLIC "-//W3C//DTD SVG 1.1//EN" "http://www.w3.org/Graphics/SVG/1.1/DTD/svg11.dtd">
<svg version="1.1" id="Layer_1" xmlns="http://www.w3.org/2000/svg" xmlns:xlink="http://www.w3.org/1999/xlink" x="0px" y="0px"
	 viewBox="0 0 540 330" enable-background="new 0 0 540 330" xml:space="preserve">
<g>
	<polygon fill="#FFFFFF" points="18.3,330.5 18,329.5 144,283.9 157.6,262.3 184.1,244.3 198.2,231.9 218.7,224.2 248.1,200.5 
		248.2,200.5 290.4,191.5 305,176 324.5,152.2 336,141.6 347.1,127.5 356.1,116.4 359.7,104.4 384.3,80 385,80.7 360.6,104.9 
		357,117 347.9,128.1 336.7,142.3 325.2,152.9 305.7,176.7 290.9,192.5 290.8,192.5 248.6,201.5 219.2,225.1 198.6,232.8 184.7,245 
		158.4,263 144.7,284.7 144.5,284.8 	"/>
</g>
<g>
	<path fill="#FFFFFF" stroke="#FFFFFF" stroke-miterlimit="10" d="M384.7,80.3"/>
</g>
<g>
	<polygon fill="#FFFFFF" points="384.8,80.8 384.5,79.9 415.8,71.5 426.2,63.5 449.9,54.9 479.8,48.9 540,46.7 540,47.7 479.9,49.9 
		450.2,55.8 426.6,64.4 416.1,72.5 	"/>
</g>
<g>
	<path fill="#FFFFFF" d="M80.2,274.9h1.7v-4.4h-1.4v-1.1c0.8-0.2,1.4-0.4,1.9-0.7h1.3v6.2H85v1.4h-4.8V274.9z"/>
	<path fill="#FFFFFF" d="M86.1,272.5c0-2.6,1.1-3.9,2.7-3.9c1.6,0,2.7,1.3,2.7,3.9s-1.1,4-2.7,4C87.2,276.5,86.1,275.1,86.1,272.5z
		 M89.9,272.5c0-2.1-0.5-2.6-1.1-2.6c-0.6,0-1.1,0.5-1.1,2.6c0,2.1,0.5,2.6,1.1,2.6C89.4,275.2,89.9,274.6,89.9,272.5z"/>
	<path fill="#FFFFFF" d="M94.6,267.9h1.2l-2.4,10.4h-1.2L94.6,267.9z"/>
	<path fill="#FFFFFF" d="M101,270.6c-0.3-0.3-0.7-0.5-1.2-0.5c-0.8,0-1.5,0.6-1.6,2.4c0.4-0.5,1.1-0.8,1.5-0.8
		c1.3,0,2.3,0.7,2.3,2.4c0,1.6-1.2,2.6-2.5,2.6c-1.5,0-2.9-1.1-2.9-3.8c0-2.8,1.5-4.1,3.1-4.1c1,0,1.7,0.4,2.2,0.9L101,270.6z
		 M100.4,274c0-0.8-0.4-1.1-1-1.1c-0.4,0-0.8,0.2-1.2,0.8c0.2,1.2,0.7,1.6,1.2,1.6C99.9,275.2,100.4,274.8,100.4,274z"/>
	<path fill="#FFFFFF" d="M105,267.9h1.2l-2.4,10.4h-1.2L105,267.9z"/>
	<path fill="#FFFFFF" d="M107.3,274.9h1.7v-4.4h-1.4v-1.1c0.8-0.2,1.4-0.4,1.9-0.7h1.3v6.2h1.4v1.4h-4.8V274.9z"/>
	<path fill="#FFFFFF" d="M113.9,274.3c0.5,0.4,1,0.8,1.6,0.8c0.8,0,1.3-0.4,1.3-1.2c0-0.8-0.5-1.2-1.2-1.2c-0.4,0-0.7,0.1-1.1,0.4
		l-0.8-0.5l0.2-3.9h4.3v1.5h-2.8l-0.1,1.4c0.3-0.1,0.5-0.2,0.9-0.2c1.3,0,2.4,0.7,2.4,2.4c0,1.7-1.3,2.7-2.8,2.7
		c-1.2,0-2.1-0.5-2.7-1.1L113.9,274.3z"/>
</g>
<g>
	<path fill="#FFFFFF" d="M93.7,258.3h1.7v-4.4H94v-1.1c0.8-0.2,1.4-0.4,1.9-0.7h1.3v6.2h1.4v1.4h-4.8V258.3z"/>
	<path fill="#FFFFFF" d="M99.7,255.9c0-2.6,1.1-3.9,2.7-3.9c1.6,0,2.7,1.3,2.7,3.9s-1.1,4-2.7,4C100.8,259.9,99.7,258.5,99.7,255.9z
		 M103.5,255.9c0-2.1-0.5-2.6-1.1-2.6c-0.6,0-1.1,0.5-1.1,2.6c0,2.1,0.5,2.6,1.1,2.6C103,258.5,103.5,258,103.5,255.9z"/>
	<path fill="#FFFFFF" d="M108.1,251.2h1.2l-2.4,10.4h-1.2L108.1,251.2z"/>
	<path fill="#FFFFFF" d="M110.5,258.3h1.7v-4.4h-1.4v-1.1c0.8-0.2,1.4-0.4,1.9-0.7h1.3v6.2h1.4v1.4h-4.8V258.3z"/>
	<path fill="#FFFFFF" d="M117,257.7c0.5,0.4,1,0.8,1.6,0.8c0.8,0,1.3-0.4,1.3-1.2c0-0.8-0.5-1.2-1.2-1.2c-0.4,0-0.7,0.1-1.1,0.4
		l-0.8-0.5l0.2-3.9h4.3v1.5h-2.8l-0.1,1.4c0.3-0.1,0.5-0.2,0.9-0.2c1.3,0,2.4,0.7,2.4,2.4c0,1.7-1.3,2.7-2.8,2.7
		c-1.2,0-2.1-0.5-2.7-1.1L117,257.7z"/>
	<path fill="#FFFFFF" d="M124.9,251.2h1.2l-2.4,10.4h-1.2L124.9,251.2z"/>
	<path fill="#FFFFFF" d="M127.2,258.3h1.7v-4.4h-1.4v-1.1c0.8-0.2,1.4-0.4,1.9-0.7h1.3v6.2h1.4v1.4h-4.8V258.3z"/>
	<path fill="#FFFFFF" d="M133.8,257.7c0.5,0.4,1,0.8,1.6,0.8c0.8,0,1.3-0.4,1.3-1.2c0-0.8-0.5-1.2-1.2-1.2c-0.4,0-0.7,0.1-1.1,0.4
		l-0.8-0.5l0.2-3.9h4.3v1.5h-2.8l-0.1,1.4c0.3-0.1,0.5-0.2,0.9-0.2c1.3,0,2.4,0.7,2.4,2.4c0,1.7-1.3,2.7-2.8,2.7
		c-1.2,0-2.1-0.5-2.7-1.1L133.8,257.7z"/>
</g>
<g>
	<path fill="#FFFFFF" d="M130.1,237.7h1.7v-4.4h-1.4v-1.1c0.8-0.2,1.4-0.4,1.9-0.7h1.3v6.2h1.4v1.4h-4.8V237.7z"/>
	<path fill="#FFFFFF" d="M136.5,237.7h1.7v-4.4h-1.4v-1.1c0.8-0.2,1.4-0.4,1.9-0.7h1.3v6.2h1.4v1.4h-4.8V237.7z"/>
	<path fill="#FFFFFF" d="M144.5,230.6h1.2l-2.4,10.4h-1.2L144.5,230.6z"/>
	<path fill="#FFFFFF" d="M147.1,237.1c0.5,0.4,1,0.8,1.6,0.8c0.8,0,1.3-0.4,1.3-1.2c0-0.8-0.5-1.2-1.2-1.2c-0.4,0-0.7,0.1-1.1,0.4
		l-0.8-0.5l0.2-3.9h4.3v1.5h-2.8l-0.1,1.4c0.3-0.1,0.5-0.2,0.9-0.2c1.3,0,2.4,0.7,2.4,2.4c0,1.7-1.3,2.7-2.8,2.7
		c-1.2,0-2.1-0.5-2.7-1.1L147.1,237.1z"/>
	<path fill="#FFFFFF" d="M154.9,230.6h1.2l-2.4,10.4h-1.2L154.9,230.6z"/>
	<path fill="#FFFFFF" d="M157.3,237.7h1.7v-4.4h-1.4v-1.1c0.8-0.2,1.4-0.4,1.9-0.7h1.3v6.2h1.4v1.4h-4.8V237.7z"/>
	<path fill="#FFFFFF" d="M163.8,237.1c0.5,0.4,1,0.8,1.6,0.8c0.8,0,1.3-0.4,1.3-1.2c0-0.8-0.5-1.2-1.2-1.2c-0.4,0-0.7,0.1-1.1,0.4
		l-0.8-0.5l0.2-3.9h4.3v1.5h-2.8l-0.1,1.4c0.3-0.1,0.5-0.2,0.9-0.2c1.3,0,2.4,0.7,2.4,2.4c0,1.7-1.3,2.7-2.8,2.7
		c-1.2,0-2.1-0.5-2.7-1.1L163.8,237.1z"/>
</g>
<g>
	<path fill="#FFFFFF" d="M147.1,218.2h1.7v-4.4h-1.4v-1.1c0.8-0.2,1.4-0.4,1.9-0.7h1.3v6.2h1.4v1.4h-4.8V218.2z"/>
	<path fill="#FFFFFF" d="M153.4,218.2h1.7v-4.4h-1.4v-1.1c0.8-0.2,1.4-0.4,1.9-0.7h1.3v6.2h1.4v1.4h-4.8V218.2z"/>
	<path fill="#FFFFFF" d="M161.5,211.1h1.2l-2.4,10.4h-1.2L161.5,211.1z"/>
	<path fill="#FFFFFF" d="M163.8,218.2h1.7v-4.4h-1.4v-1.1c0.8-0.2,1.4-0.4,1.9-0.7h1.3v6.2h1.4v1.4h-4.8V218.2z"/>
	<path fill="#FFFFFF" d="M169.8,218.6c1.9-1.8,3.3-3.1,3.3-4.2c0-0.7-0.4-1.2-1.1-1.2c-0.6,0-1,0.4-1.4,0.8l-1-0.9
		c0.8-0.8,1.5-1.2,2.6-1.2c1.5,0,2.5,1,2.5,2.4c0,1.3-1.2,2.7-2.4,3.9c0.4,0,0.9-0.1,1.3-0.1h1.5v1.5h-5.4V218.6z"/>
	<path fill="#FFFFFF" d="M178.2,211.1h1.2l-2.4,10.4h-1.2L178.2,211.1z"/>
	<path fill="#FFFFFF" d="M180.6,218.2h1.7v-4.4h-1.4v-1.1c0.8-0.2,1.4-0.4,1.9-0.7h1.3v6.2h1.4v1.4h-4.8V218.2z"/>
	<path fill="#FFFFFF" d="M187.1,217.6c0.5,0.4,1,0.8,1.6,0.8c0.8,0,1.3-0.4,1.3-1.2c0-0.8-0.5-1.2-1.2-1.2c-0.4,0-0.7,0.1-1.1,0.4
		l-0.8-0.5l0.2-3.9h4.3v1.5h-2.8l-0.1,1.4c0.3-0.1,0.5-0.2,0.9-0.2c1.3,0,2.4,0.7,2.4,2.4c0,1.7-1.3,2.7-2.8,2.7
		c-1.2,0-2.1-0.5-2.7-1.1L187.1,217.6z"/>
</g>
<g>
	<path fill="#FFFFFF" d="M222.8,237.7h1.7v-4.4H223v-1.1c0.8-0.2,1.4-0.4,1.9-0.7h1.3v6.2h1.4v1.4h-4.8V237.7z"/>
	<path fill="#FFFFFF" d="M229.1,237.7h1.7v-4.4h-1.4v-1.1c0.8-0.2,1.4-0.4,1.9-0.7h1.3v6.2h1.4v1.4h-4.8V237.7z"/>
	<path fill="#FFFFFF" d="M237.2,230.6h1.2l-2.4,10.4h-1.2L237.2,230.6z"/>
	<path fill="#FFFFFF" d="M239.5,237.7h1.7v-4.4h-1.4v-1.1c0.8-0.2,1.4-0.4,1.9-0.7h1.3v6.2h1.4v1.4h-4.8V237.7z"/>
	<path fill="#FFFFFF" d="M245.5,238.1c1.9-1.8,3.3-3.1,3.3-4.2c0-0.7-0.4-1.2-1.1-1.2c-0.6,0-1,0.4-1.4,0.8l-1-0.9
		c0.8-0.8,1.5-1.2,2.6-1.2c1.5,0,2.5,1,2.5,2.4c0,1.3-1.2,2.7-2.4,3.9c0.4,0,0.9-0.1,1.3-0.1h1.5v1.5h-5.4V238.1z"/>
	<path fill="#FFFFFF" d="M253.9,230.6h1.2l-2.4,10.4h-1.2L253.9,230.6z"/>
	<path fill="#FFFFFF" d="M256.3,237.7h1.7v-4.4h-1.4v-1.1c0.8-0.2,1.4-0.4,1.9-0.7h1.3v6.2h1.4v1.4h-4.8V237.7z"/>
	<path fill="#FFFFFF" d="M262.8,237.1c0.5,0.4,1,0.8,1.6,0.8c0.8,0,1.3-0.4,1.3-1.2c0-0.8-0.5-1.2-1.2-1.2c-0.4,0-0.7,0.1-1.1,0.4
		l-0.8-0.5l0.2-3.9h4.3v1.5h-2.8l-0.1,1.4c0.3-0.1,0.5-0.2,0.9-0.2c1.3,0,2.4,0.7,2.4,2.4c0,1.7-1.3,2.7-2.8,2.7
		c-1.2,0-2.1-0.5-2.7-1.1L262.8,237.1z"/>
</g>
<g>
	<path fill="#FFFFFF" d="M192.8,189.3h1.7v-4.4H193v-1.1c0.8-0.2,1.4-0.4,1.9-0.7h1.3v6.2h1.4v1.4h-4.8V189.3z"/>
	<path fill="#FFFFFF" d="M198.7,189.7c1.9-1.8,3.3-3.1,3.3-4.2c0-0.7-0.4-1.2-1.1-1.2c-0.6,0-1,0.4-1.4,0.8l-1-0.9
		c0.8-0.8,1.5-1.2,2.6-1.2c1.5,0,2.5,1,2.5,2.4c0,1.3-1.2,2.7-2.4,3.9c0.4,0,0.9-0.1,1.3-0.1h1.5v1.5h-5.4V189.7z"/>
	<path fill="#FFFFFF" d="M207.2,182.2h1.2l-2.4,10.4h-1.2L207.2,182.2z"/>
	<path fill="#FFFFFF" d="M209.5,189.3h1.7v-4.4h-1.4v-1.1c0.8-0.2,1.4-0.4,1.9-0.7h1.3v6.2h1.4v1.4h-4.8V189.3z"/>
	<path fill="#FFFFFF" d="M216.1,188.7c0.5,0.4,1,0.8,1.6,0.8c0.8,0,1.3-0.4,1.3-1.2c0-0.8-0.5-1.2-1.2-1.2c-0.4,0-0.7,0.1-1.1,0.4
		l-0.8-0.5l0.2-3.9h4.3v1.5h-2.8l-0.1,1.4c0.3-0.1,0.5-0.2,0.9-0.2c1.3,0,2.4,0.7,2.4,2.4c0,1.7-1.3,2.7-2.8,2.7
		c-1.2,0-2.1-0.5-2.7-1.1L216.1,188.7z"/>
	<path fill="#FFFFFF" d="M223.9,182.2h1.2l-2.4,10.4h-1.2L223.9,182.2z"/>
	<path fill="#FFFFFF" d="M226.3,189.3h1.7v-4.4h-1.4v-1.1c0.8-0.2,1.4-0.4,1.9-0.7h1.3v6.2h1.4v1.4h-4.8V189.3z"/>
	<path fill="#FFFFFF" d="M232.8,188.7c0.5,0.4,1,0.8,1.6,0.8c0.8,0,1.3-0.4,1.3-1.2c0-0.8-0.5-1.2-1.2-1.2c-0.4,0-0.7,0.1-1.1,0.4
		l-0.8-0.5l0.2-3.9h4.3v1.5h-2.8l-0.1,1.4c0.3-0.1,0.5-0.2,0.9-0.2c1.3,0,2.4,0.7,2.4,2.4c0,1.7-1.3,2.7-2.8,2.7
		c-1.2,0-2.1-0.5-2.7-1.1L232.8,188.7z"/>
</g>
<g>
	<path fill="#FFFFFF" d="M239,174.9h1.7v-4.4h-1.4v-1.1c0.8-0.2,1.4-0.4,1.9-0.7h1.3v6.2h1.4v1.4H239V174.9z"/>
	<path fill="#FFFFFF" d="M247.1,167.9h1.2l-2.4,10.4h-1.2L247.1,167.9z"/>
	<path fill="#FFFFFF" d="M249.4,174.9h1.7v-4.4h-1.4v-1.1c0.8-0.2,1.4-0.4,1.9-0.7h1.3v6.2h1.4v1.4h-4.8V174.9z"/>
	<path fill="#FFFFFF" d="M261,174.6h-0.9v1.8h-1.6v-1.8h-3.3v-1.2l2.8-4.6h2.2v4.5h0.9V174.6z M258.5,173.2V172c0-0.5,0-1.2,0.1-1.7
		h0c-0.2,0.4-0.4,0.9-0.6,1.3l-1,1.7H258.5z"/>
	<path fill="#FFFFFF" d="M263.8,167.9h1.2l-2.4,10.4h-1.2L263.8,167.9z"/>
	<path fill="#FFFFFF" d="M266.2,174.9h1.7v-4.4h-1.4v-1.1c0.8-0.2,1.4-0.4,1.9-0.7h1.3v6.2h1.4v1.4h-4.8V174.9z"/>
	<path fill="#FFFFFF" d="M276.5,170.6c-0.3-0.3-0.7-0.5-1.2-0.5c-0.8,0-1.5,0.6-1.6,2.4c0.4-0.5,1.1-0.8,1.5-0.8
		c1.3,0,2.3,0.7,2.3,2.4c0,1.6-1.2,2.6-2.5,2.6c-1.5,0-2.9-1.1-2.9-3.8c0-2.8,1.5-4.1,3.1-4.1c1,0,1.7,0.4,2.2,0.9L276.5,170.6z
		 M276,174c0-0.8-0.4-1.1-1-1.1c-0.4,0-0.8,0.2-1.2,0.8c0.2,1.2,0.7,1.6,1.2,1.6C275.5,175.2,276,174.8,276,174z"/>
</g>
<g>
	<path fill="#FFFFFF" d="M255.9,160.6h1.7v-4.4h-1.4v-1.1c0.8-0.2,1.4-0.4,1.9-0.7h1.3v6.2h1.4v1.4h-4.8V160.6z"/>
	<path fill="#FFFFFF" d="M263.9,153.5h1.2l-2.4,10.4h-1.2L263.9,153.5z"/>
	<path fill="#FFFFFF" d="M265.9,161c1.9-1.8,3.3-3.1,3.3-4.2c0-0.7-0.4-1.2-1.1-1.2c-0.6,0-1,0.4-1.4,0.8l-1-0.9
		c0.8-0.8,1.5-1.2,2.6-1.2c1.5,0,2.5,1,2.5,2.4c0,1.3-1.2,2.7-2.4,3.9c0.4,0,0.9-0.1,1.3-0.1h1.5v1.5h-5.4V161z"/>
	<path fill="#FFFFFF" d="M272.6,160.6h1.7v-4.4h-1.4v-1.1c0.8-0.2,1.4-0.4,1.9-0.7h1.3v6.2h1.4v1.4h-4.8V160.6z"/>
	<path fill="#FFFFFF" d="M280.7,153.5h1.2l-2.4,10.4h-1.2L280.7,153.5z"/>
	<path fill="#FFFFFF" d="M283,160.6h1.7v-4.4h-1.4v-1.1c0.8-0.2,1.4-0.4,1.9-0.7h1.3v6.2h1.4v1.4H283V160.6z"/>
	<path fill="#FFFFFF" d="M293.4,156.2c-0.3-0.3-0.7-0.5-1.2-0.5c-0.8,0-1.5,0.6-1.6,2.4c0.4-0.5,1.1-0.8,1.5-0.8
		c1.3,0,2.3,0.7,2.3,2.4c0,1.6-1.2,2.6-2.5,2.6c-1.5,0-2.9-1.1-2.9-3.8c0-2.8,1.5-4.1,3.1-4.1c1,0,1.7,0.4,2.2,0.9L293.4,156.2z
		 M292.8,159.6c0-0.8-0.4-1.1-1-1.1c-0.4,0-0.8,0.2-1.2,0.8c0.2,1.2,0.7,1.6,1.2,1.6C292.4,160.8,292.8,160.4,292.8,159.6z"/>
</g>
<g>
	<path fill="#FFFFFF" d="M275.5,146.6c1.9-1.8,3.3-3.1,3.3-4.2c0-0.7-0.4-1.2-1.1-1.2c-0.6,0-1,0.4-1.4,0.8l-1-0.9
		c0.8-0.8,1.5-1.2,2.6-1.2c1.5,0,2.5,1,2.5,2.4c0,1.3-1.2,2.7-2.4,3.9c0.4,0,0.9-0.1,1.3-0.1h1.5v1.5h-5.4V146.6z"/>
	<path fill="#FFFFFF" d="M284,139.1h1.2l-2.4,10.4h-1.2L284,139.1z"/>
	<path fill="#FFFFFF" d="M291.6,145.8h-0.9v1.8H289v-1.8h-3.3v-1.2l2.8-4.6h2.2v4.5h0.9V145.8z M289,144.4v-1.2c0-0.5,0-1.2,0.1-1.7
		h0c-0.2,0.4-0.4,0.9-0.6,1.3l-1,1.7H289z"/>
	<path fill="#FFFFFF" d="M294.4,139.1h1.2l-2.4,10.4H292L294.4,139.1z"/>
	<path fill="#FFFFFF" d="M296.7,146.2h1.7v-4.4H297v-1.1c0.8-0.2,1.4-0.4,1.9-0.7h1.3v6.2h1.4v1.4h-4.8V146.2z"/>
	<path fill="#FFFFFF" d="M307.1,141.8c-0.3-0.3-0.7-0.5-1.2-0.5c-0.8,0-1.5,0.6-1.6,2.4c0.4-0.5,1.1-0.8,1.5-0.8
		c1.3,0,2.3,0.7,2.3,2.4c0,1.6-1.2,2.6-2.5,2.6c-1.5,0-2.9-1.1-2.9-3.8c0-2.8,1.5-4.1,3.1-4.1c1,0,1.7,0.4,2.2,0.9L307.1,141.8z
		 M306.5,145.2c0-0.8-0.4-1.1-1-1.1c-0.4,0-0.8,0.2-1.2,0.8c0.2,1.2,0.7,1.6,1.2,1.6C306.1,146.4,306.5,146,306.5,145.2z"/>
</g>
<g>
	<path fill="#FFFFFF" d="M344.4,155.4c1.9-1.8,3.3-3.1,3.3-4.2c0-0.7-0.4-1.2-1.1-1.2c-0.6,0-1,0.4-1.4,0.8l-1-0.9
		c0.8-0.8,1.5-1.2,2.6-1.2c1.5,0,2.5,1,2.5,2.4c0,1.3-1.2,2.7-2.4,3.9c0.4,0,0.9-0.1,1.3-0.1h1.5v1.5h-5.4V155.4z"/>
	<path fill="#FFFFFF" d="M352.8,147.9h1.2l-2.4,10.4h-1.2L352.8,147.9z"/>
	<path fill="#FFFFFF" d="M355.2,155h1.7v-4.4h-1.4v-1.1c0.8-0.2,1.4-0.4,1.9-0.7h1.3v6.2h1.4v1.4h-4.8V155z"/>
	<path fill="#FFFFFF" d="M361.8,154.4c0.5,0.4,1,0.8,1.7,0.8c0.7,0,1.2-0.3,1.2-0.9c0-0.7-0.4-1.1-2.1-1.1v-1.2c1.4,0,1.8-0.4,1.8-1
		c0-0.5-0.3-0.8-0.9-0.8c-0.5,0-0.9,0.3-1.4,0.7l-0.9-1.1c0.7-0.6,1.5-1,2.4-1c1.6,0,2.6,0.8,2.6,2.1c0,0.8-0.5,1.3-1.3,1.7v0
		c0.9,0.3,1.5,0.9,1.5,1.9c0,1.4-1.3,2.2-2.8,2.2c-1.2,0-2.1-0.4-2.7-1.1L361.8,154.4z"/>
	<path fill="#FFFFFF" d="M369.6,147.9h1.2l-2.4,10.4h-1.2L369.6,147.9z"/>
	<path fill="#FFFFFF" d="M371.9,155h1.7v-4.4h-1.4v-1.1c0.8-0.2,1.4-0.4,1.9-0.7h1.3v6.2h1.4v1.4h-4.8V155z"/>
	<path fill="#FFFFFF" d="M382.3,150.6c-0.3-0.3-0.7-0.5-1.2-0.5c-0.8,0-1.5,0.6-1.6,2.4c0.4-0.5,1.1-0.8,1.5-0.8
		c1.3,0,2.3,0.7,2.3,2.4c0,1.6-1.2,2.6-2.5,2.6c-1.5,0-2.9-1.1-2.9-3.8c0-2.8,1.5-4.1,3.1-4.1c1,0,1.7,0.4,2.2,0.9L382.3,150.6z
		 M381.7,154c0-0.8-0.4-1.1-1-1.1c-0.4,0-0.8,0.2-1.2,0.8c0.2,1.2,0.7,1.6,1.2,1.6S381.7,154.9,381.7,154z"/>
</g>
<g>
	<path fill="#FFFFFF" d="M288.1,132.2c1.9-1.8,3.3-3.1,3.3-4.2c0-0.7-0.4-1.2-1.1-1.2c-0.6,0-1,0.4-1.4,0.8l-1-0.9
		c0.8-0.8,1.5-1.2,2.6-1.2c1.5,0,2.5,1,2.5,2.4c0,1.3-1.2,2.7-2.4,3.9c0.4,0,0.9-0.1,1.3-0.1h1.5v1.5h-5.4V132.2z"/>
	<path fill="#FFFFFF" d="M296.6,124.7h1.2l-2.4,10.4h-1.2L296.6,124.7z"/>
	<path fill="#FFFFFF" d="M298.9,131.8h1.7v-4.4h-1.4v-1.1c0.8-0.2,1.4-0.4,1.9-0.7h1.3v6.2h1.4v1.4h-4.8V131.8z"/>
	<path fill="#FFFFFF" d="M306.2,129.4L306.2,129.4c-0.6-0.5-1-1-1-1.8c0-1.3,1-2.1,2.4-2.1c1.4,0,2.3,0.8,2.3,2.1
		c0,0.7-0.5,1.3-1,1.7v0c0.7,0.4,1.3,1,1.3,2c0,1.2-1.1,2.1-2.7,2.1c-1.5,0-2.7-0.9-2.7-2.1C304.9,130.3,305.5,129.8,306.2,129.4z
		 M307.6,132.1c0.6,0,1-0.3,1-0.9c0-0.7-0.6-0.9-1.6-1.3c-0.3,0.3-0.6,0.7-0.6,1.2C306.4,131.7,307,132.1,307.6,132.1z M308.5,127.6
		c0-0.6-0.3-1-0.9-1c-0.5,0-0.9,0.3-0.9,0.9c0,0.6,0.5,0.9,1.3,1.2C308.4,128.4,308.5,128,308.5,127.6z"/>
	<path fill="#FFFFFF" d="M313.3,124.7h1.2l-2.4,10.4h-1.2L313.3,124.7z"/>
	<path fill="#FFFFFF" d="M315.7,131.8h1.7v-4.4h-1.4v-1.1c0.8-0.2,1.4-0.4,1.9-0.7h1.3v6.2h1.4v1.4h-4.8V131.8z"/>
	<path fill="#FFFFFF" d="M326,127.4c-0.3-0.3-0.7-0.5-1.2-0.5c-0.8,0-1.5,0.6-1.6,2.4c0.4-0.5,1.1-0.8,1.5-0.8
		c1.3,0,2.3,0.7,2.3,2.4c0,1.6-1.2,2.6-2.5,2.6c-1.5,0-2.9-1.1-2.9-3.8c0-2.8,1.5-4.1,3.1-4.1c1,0,1.7,0.4,2.2,0.9L326,127.4z
		 M325.5,130.8c0-0.8-0.4-1.1-1-1.1c-0.4,0-0.8,0.2-1.2,0.8c0.2,1.2,0.7,1.6,1.2,1.6C325,132,325.5,131.6,325.5,130.8z"/>
</g>
<g>
	<path fill="#FFFFFF" d="M299.6,112.9c1.9-1.8,3.3-3.1,3.3-4.2c0-0.7-0.4-1.2-1.1-1.2c-0.6,0-1,0.4-1.4,0.8l-1-0.9
		c0.8-0.8,1.5-1.2,2.6-1.2c1.5,0,2.5,1,2.5,2.4c0,1.3-1.2,2.7-2.4,3.9c0.4,0,0.9-0.1,1.3-0.1h1.5v1.5h-5.4V112.9z"/>
	<path fill="#FFFFFF" d="M308.1,105.4h1.2l-2.4,10.4h-1.2L308.1,105.4z"/>
	<path fill="#FFFFFF" d="M310,112.9c1.9-1.8,3.3-3.1,3.3-4.2c0-0.7-0.4-1.2-1.1-1.2c-0.6,0-1,0.4-1.4,0.8l-1-0.9
		c0.8-0.8,1.5-1.2,2.6-1.2c1.5,0,2.5,1,2.5,2.4c0,1.3-1.2,2.7-2.4,3.9c0.4,0,0.9-0.1,1.3-0.1h1.5v1.5H310V112.9z"/>
	<path fill="#FFFFFF" d="M317,111.9c0.5,0.4,1,0.8,1.6,0.8c0.8,0,1.3-0.4,1.3-1.2c0-0.8-0.5-1.2-1.2-1.2c-0.4,0-0.7,0.1-1.1,0.4
		l-0.8-0.5l0.2-3.9h4.3v1.5h-2.8l-0.1,1.4c0.3-0.1,0.5-0.2,0.9-0.2c1.3,0,2.4,0.7,2.4,2.4c0,1.7-1.3,2.7-2.8,2.7
		c-1.2,0-2.1-0.5-2.7-1.1L317,111.9z"/>
	<path fill="#FFFFFF" d="M324.8,105.4h1.2l-2.4,10.4h-1.2L324.8,105.4z"/>
	<path fill="#FFFFFF" d="M327.2,112.5h1.7v-4.4h-1.4V107c0.8-0.2,1.4-0.4,1.9-0.7h1.3v6.2h1.4v1.4h-4.8V112.5z"/>
	<path fill="#FFFFFF" d="M337.5,108.1c-0.3-0.3-0.7-0.5-1.2-0.5c-0.8,0-1.5,0.6-1.6,2.4c0.4-0.5,1.1-0.8,1.5-0.8
		c1.3,0,2.3,0.7,2.3,2.4c0,1.6-1.2,2.6-2.5,2.6c-1.5,0-2.9-1.1-2.9-3.8c0-2.8,1.5-4.1,3.1-4.1c1,0,1.7,0.4,2.2,0.9L337.5,108.1z
		 M337,111.5c0-0.8-0.4-1.1-1-1.1c-0.4,0-0.8,0.2-1.2,0.8c0.2,1.2,0.7,1.6,1.2,1.6C336.5,112.8,337,112.4,337,111.5z"/>
</g>
<g>
	<path fill="#FFFFFF" d="M366.7,108.4c0.5,0.4,1,0.8,1.7,0.8c0.7,0,1.2-0.3,1.2-0.9c0-0.7-0.4-1.1-2.1-1.1v-1.2c1.4,0,1.8-0.4,1.8-1
		c0-0.5-0.3-0.8-0.9-0.8c-0.5,0-0.9,0.3-1.4,0.7l-0.9-1.1c0.7-0.6,1.5-1,2.4-1c1.6,0,2.6,0.8,2.6,2.1c0,0.8-0.5,1.3-1.3,1.7v0
		c0.9,0.3,1.5,0.9,1.5,1.9c0,1.4-1.3,2.2-2.8,2.2c-1.2,0-2.1-0.4-2.7-1.1L366.7,108.4z"/>
	<path fill="#FFFFFF" d="M374.5,101.9h1.2l-2.4,10.4h-1.2L374.5,101.9z"/>
	<path fill="#FFFFFF" d="M376.9,109h1.7v-4.4h-1.4v-1.1c0.8-0.2,1.4-0.4,1.9-0.7h1.3v6.2h1.4v1.4h-4.8V109z"/>
	<path fill="#FFFFFF" d="M385,101.9h1.2l-2.4,10.4h-1.2L385,101.9z"/>
	<path fill="#FFFFFF" d="M387.3,109h1.7v-4.4h-1.4v-1.1c0.8-0.2,1.4-0.4,1.9-0.7h1.3v6.2h1.4v1.4h-4.8V109z"/>
	<path fill="#FFFFFF" d="M397.7,104.6c-0.3-0.3-0.7-0.5-1.2-0.5c-0.8,0-1.5,0.6-1.6,2.4c0.4-0.5,1.1-0.8,1.5-0.8
		c1.3,0,2.3,0.7,2.3,2.4c0,1.6-1.2,2.6-2.5,2.6c-1.5,0-2.9-1.1-2.9-3.8c0-2.8,1.5-4.1,3.1-4.1c1,0,1.7,0.4,2.2,0.9L397.7,104.6z
		 M397.1,108c0-0.8-0.4-1.1-1-1.1c-0.4,0-0.8,0.2-1.2,0.8c0.2,1.2,0.7,1.6,1.2,1.6C396.6,109.3,397.1,108.9,397.1,108z"/>
</g>
<g>
	<path fill="#FFFFFF" d="M343,69.9c0.5,0.4,1,0.8,1.7,0.8c0.7,0,1.2-0.3,1.2-0.9c0-0.7-0.4-1.1-2.1-1.1v-1.2c1.4,0,1.8-0.4,1.8-1
		c0-0.5-0.3-0.8-0.9-0.8c-0.5,0-0.9,0.3-1.4,0.7l-0.9-1.1c0.7-0.6,1.5-1,2.4-1c1.6,0,2.6,0.8,2.6,2.1c0,0.8-0.5,1.3-1.3,1.7v0
		c0.9,0.3,1.5,0.9,1.5,1.9c0,1.4-1.3,2.2-2.8,2.2c-1.2,0-2.1-0.4-2.7-1.1L343,69.9z"/>
	<path fill="#FFFFFF" d="M350.8,63.4h1.2l-2.4,10.4h-1.2L350.8,63.4z"/>
	<path fill="#FFFFFF" d="M353.1,70.5h1.7v-4.4h-1.4V65c0.8-0.2,1.4-0.4,1.9-0.7h1.3v6.2h1.4v1.4h-4.8V70.5z"/>
	<path fill="#FFFFFF" d="M362.6,65.8h-3.4v-1.5h5.3v1.1c-1.8,2.1-2,3.6-2.1,6.5h-1.8C360.7,69.4,361.1,67.8,362.6,65.8z"/>
	<path fill="#FFFFFF" d="M367.5,63.4h1.2l-2.4,10.4h-1.2L367.5,63.4z"/>
	<path fill="#FFFFFF" d="M369.9,70.5h1.7v-4.4h-1.4V65c0.8-0.2,1.4-0.4,1.9-0.7h1.3v6.2h1.4v1.4h-4.8V70.5z"/>
	<path fill="#FFFFFF" d="M380.2,66.1c-0.3-0.3-0.7-0.5-1.2-0.5c-0.8,0-1.5,0.6-1.6,2.4c0.4-0.5,1.1-0.8,1.5-0.8
		c1.3,0,2.3,0.7,2.3,2.4c0,1.6-1.2,2.6-2.5,2.6c-1.5,0-2.9-1.1-2.9-3.8c0-2.8,1.5-4.1,3.1-4.1c1,0,1.7,0.4,2.2,0.9L380.2,66.1z
		 M379.7,69.5c0-0.8-0.4-1.1-1-1.1c-0.4,0-0.8,0.2-1.2,0.8c0.2,1.2,0.7,1.6,1.2,1.6S379.7,70.4,379.7,69.5z"/>
</g>
<g>
	<path fill="#FFFFFF" d="M424.9,83.7h-0.9v1.8h-1.6v-1.8h-3.3v-1.2l2.8-4.6h2.2v4.5h0.9V83.7z M422.4,82.3v-1.2c0-0.5,0-1.2,0.1-1.7
		h0c-0.2,0.4-0.4,0.9-0.6,1.3l-1,1.7H422.4z"/>
	<path fill="#FFFFFF" d="M427.8,77h1.2l-2.4,10.4h-1.2L427.8,77z"/>
	<path fill="#FFFFFF" d="M433.2,79.4h-3.4v-1.5h5.3V79c-1.8,2.1-2,3.6-2.1,6.5h-1.8C431.3,83,431.8,81.4,433.2,79.4z"/>
	<path fill="#FFFFFF" d="M438.2,77h1.2l-2.4,10.4h-1.2L438.2,77z"/>
	<path fill="#FFFFFF" d="M440.5,84.1h1.7v-4.4h-1.4v-1.1c0.8-0.2,1.4-0.4,1.9-0.7h1.3v6.2h1.4v1.4h-4.8V84.1z"/>
	<path fill="#FFFFFF" d="M450.9,79.7c-0.3-0.3-0.7-0.5-1.2-0.5c-0.8,0-1.5,0.6-1.6,2.4c0.4-0.5,1.1-0.8,1.5-0.8
		c1.3,0,2.3,0.7,2.3,2.4c0,1.6-1.2,2.6-2.5,2.6c-1.5,0-2.9-1.1-2.9-3.8c0-2.8,1.5-4.1,3.1-4.1c1,0,1.7,0.4,2.2,0.9L450.9,79.7z
		 M450.3,83.1c0-0.8-0.4-1.1-1-1.1c-0.4,0-0.8,0.2-1.2,0.8c0.2,1.2,0.7,1.6,1.2,1.6C449.9,84.3,450.3,84,450.3,83.1z"/>
</g>
<g>
	<path fill="#FFFFFF" d="M383.3,54.1h-0.9v1.8h-1.6v-1.8h-3.3v-1.2l2.8-4.6h2.2v4.5h0.9V54.1z M380.8,52.8v-1.2c0-0.5,0-1.2,0.1-1.7
		h0c-0.2,0.4-0.4,0.9-0.6,1.3l-1,1.7H380.8z"/>
	<path fill="#FFFFFF" d="M386.2,47.4h1.2l-2.4,10.4h-1.2L386.2,47.4z"/>
	<path fill="#FFFFFF" d="M388.5,54.5h1.7v-4.4h-1.4V49c0.8-0.2,1.4-0.4,1.9-0.7h1.3v6.2h1.4v1.4h-4.8V54.5z"/>
	<path fill="#FFFFFF" d="M400.1,54.1h-0.9v1.8h-1.6v-1.8h-3.3v-1.2l2.8-4.6h2.2v4.5h0.9V54.1z M397.6,52.8v-1.2c0-0.5,0-1.2,0.1-1.7
		h0c-0.2,0.4-0.4,0.9-0.6,1.3l-1,1.7H397.6z"/>
	<path fill="#FFFFFF" d="M402.9,47.4h1.2l-2.4,10.4h-1.2L402.9,47.4z"/>
	<path fill="#FFFFFF" d="M405.3,54.5h1.7v-4.4h-1.4V49c0.8-0.2,1.4-0.4,1.9-0.7h1.3v6.2h1.4v1.4h-4.8V54.5z"/>
	<path fill="#FFFFFF" d="M415.6,50.1c-0.3-0.3-0.7-0.5-1.2-0.5c-0.8,0-1.5,0.6-1.6,2.4c0.4-0.5,1.1-0.8,1.5-0.8
		c1.3,0,2.3,0.7,2.3,2.4c0,1.6-1.2,2.6-2.5,2.6c-1.5,0-2.9-1.1-2.9-3.8c0-2.8,1.5-4.1,3.1-4.1c1,0,1.7,0.4,2.2,0.9L415.6,50.1z
		 M415.1,53.5c0-0.8-0.4-1.1-1-1.1c-0.4,0-0.8,0.2-1.2,0.8c0.2,1.2,0.7,1.6,1.2,1.6C414.6,54.8,415.1,54.4,415.1,53.5z"/>
</g>
<g>
	<path fill="#FFFFFF" d="M443.1,33.8h-0.9v1.8h-1.6v-1.8h-3.3v-1.2L440,28h2.2v4.5h0.9V33.8z M440.5,32.5v-1.2c0-0.5,0-1.2,0.1-1.7
		h0c-0.2,0.4-0.4,0.9-0.6,1.3l-1,1.7H440.5z"/>
	<path fill="#FFFFFF" d="M445.9,27.1h1.2l-2.4,10.4h-1.2L445.9,27.1z"/>
	<path fill="#FFFFFF" d="M448.5,33.6c0.5,0.4,1,0.8,1.7,0.8c0.7,0,1.2-0.3,1.2-0.9c0-0.7-0.4-1.1-2.1-1.1v-1.2c1.4,0,1.8-0.4,1.8-1
		c0-0.5-0.3-0.8-0.9-0.8c-0.5,0-0.9,0.3-1.4,0.7l-0.9-1.1c0.7-0.6,1.5-1,2.4-1c1.6,0,2.6,0.8,2.6,2.1c0,0.8-0.5,1.3-1.3,1.7v0
		c0.9,0.3,1.5,0.9,1.5,1.9c0,1.4-1.3,2.2-2.8,2.2c-1.2,0-2.1-0.4-2.7-1.1L448.5,33.6z"/>
	<path fill="#FFFFFF" d="M454.2,31.8c0-2.6,1.1-3.9,2.7-3.9c1.6,0,2.7,1.3,2.7,3.9s-1.1,4-2.7,4C455.3,35.8,454.2,34.4,454.2,31.8z
		 M458,31.8c0-2.1-0.5-2.6-1.1-2.6c-0.6,0-1.1,0.5-1.1,2.6c0,2.1,0.5,2.6,1.1,2.6C457.5,34.4,458,33.9,458,31.8z"/>
	<path fill="#FFFFFF" d="M462.7,27.1h1.2l-2.4,10.4h-1.2L462.7,27.1z"/>
	<path fill="#FFFFFF" d="M465,34.2h1.7v-4.4h-1.4v-1.1c0.8-0.2,1.4-0.4,1.9-0.7h1.3v6.2h1.4v1.4H465V34.2z"/>
	<path fill="#FFFFFF" d="M475.4,29.8c-0.3-0.3-0.7-0.5-1.2-0.5c-0.8,0-1.5,0.6-1.6,2.4c0.4-0.5,1.1-0.8,1.5-0.8
		c1.3,0,2.3,0.7,2.3,2.4c0,1.6-1.2,2.6-2.5,2.6c-1.5,0-2.9-1.1-2.9-3.8c0-2.8,1.5-4.1,3.1-4.1c1,0,1.7,0.4,2.2,0.9L475.4,29.8z
		 M474.8,33.2c0-0.8-0.4-1.1-1-1.1c-0.4,0-0.8,0.2-1.2,0.8c0.2,1.2,0.7,1.6,1.2,1.6C474.4,34.4,474.8,34.1,474.8,33.2z"/>
</g>
<g>
	<path fill="#FFFFFF" d="M483.2,61.7c0.5,0.4,1,0.8,1.6,0.8c0.8,0,1.3-0.4,1.3-1.2c0-0.8-0.5-1.2-1.2-1.2c-0.4,0-0.7,0.1-1.1,0.4
		L483,60l0.2-3.9h4.3v1.5h-2.8l-0.1,1.4c0.3-0.1,0.5-0.2,0.9-0.2c1.3,0,2.4,0.7,2.4,2.4c0,1.7-1.3,2.7-2.8,2.7
		c-1.2,0-2.1-0.5-2.7-1.1L483.2,61.7z"/>
	<path fill="#FFFFFF" d="M491,55.2h1.2l-2.4,10.4h-1.2L491,55.2z"/>
	<path fill="#FFFFFF" d="M493.4,62.3h1.7v-4.4h-1.4v-1.1c0.8-0.2,1.4-0.4,1.9-0.7h1.3v6.2h1.4v1.4h-4.8V62.3z"/>
	<path fill="#FFFFFF" d="M500.3,61.9c0.3,0.3,0.7,0.5,1.2,0.5c0.9,0,1.5-0.6,1.6-2.4c-0.4,0.5-1.1,0.8-1.5,0.8
		c-1.3,0-2.3-0.7-2.3-2.4c0-1.6,1.2-2.6,2.5-2.6c1.5,0,2.9,1.1,2.9,3.8c0,2.8-1.5,4.1-3.1,4.1c-1,0-1.8-0.4-2.2-0.9L500.3,61.9z
		 M503,58.9c-0.2-1.2-0.6-1.6-1.2-1.6c-0.5,0-1,0.4-1,1.2c0,0.8,0.4,1.1,1,1.1C502.3,59.7,502.7,59.5,503,58.9z"/>
	<path fill="#FFFFFF" d="M507.8,55.2h1.2l-2.4,10.4h-1.2L507.8,55.2z"/>
	<path fill="#FFFFFF" d="M510.1,62.3h1.7v-4.4h-1.4v-1.1c0.8-0.2,1.4-0.4,1.9-0.7h1.3v6.2h1.4v1.4h-4.8V62.3z"/>
	<path fill="#FFFFFF" d="M520.5,58c-0.3-0.3-0.7-0.5-1.2-0.5c-0.8,0-1.5,0.6-1.6,2.4c0.4-0.5,1.1-0.8,1.5-0.8c1.3,0,2.3,0.7,2.3,2.4
		c0,1.6-1.2,2.6-2.5,2.6c-1.5,0-2.9-1.1-2.9-3.8c0-2.8,1.5-4.1,3.1-4.1c1,0,1.7,0.4,2.2,0.9L520.5,58z M519.9,61.3
		c0-0.8-0.4-1.1-1-1.1c-0.4,0-0.8,0.2-1.2,0.8c0.2,1.2,0.7,1.6,1.2,1.6C519.5,62.6,519.9,62.2,519.9,61.3z"/>
</g>
<g>
	<circle fill="#FFFFFF" cx="144.4" cy="284.5" r="4.1"/>
</g>
<g>
	<circle fill="#FFFFFF" cx="158.1" cy="262.8" r="4.1"/>
</g>
<g>
	<circle fill="#FFFFFF" cx="182.6" cy="245.9" r="4.1"/>
</g>
<g>
	<circle fill="#FFFFFF" cx="198.9" cy="232.7" r="4.1"/>
</g>
<g>
	<circle fill="#FFFFFF" cx="219.7" cy="224.7" r="4.1"/>
</g>
<g>
	<circle fill="#FFFFFF" cx="248.2" cy="201.1" r="4.1"/>
</g>
<g>
	<circle fill="#FFFFFF" cx="290.4" cy="191.9" r="4.1"/>
</g>
<g>
	<circle fill="#FFFFFF" cx="304.9" cy="176.4" r="4.1"/>
</g>
<g>
	<circle fill="#FFFFFF" cx="325.2" cy="152.3" r="4.1"/>
</g>
<g>
	<circle fill="#FFFFFF" cx="336.3" cy="141.7" r="4.1"/>
</g>
<g>
	<circle fill="#FFFFFF" cx="356.3" cy="117.9" r="4.1"/>
</g>
<g>
	<circle fill="#FFFFFF" cx="360.1" cy="104.7" r="4.1"/>
</g>
<g>
	<circle fill="#FFFFFF" cx="384.5" cy="80.4" r="4.1"/>
</g>
<g>
	<circle fill="#FFFFFF" cx="415.9" cy="71.9" r="4.1"/>
</g>
<g>
	<circle fill="#FFFFFF" cx="426.8" cy="63.8" r="4.1"/>
</g>
<g>
	<circle fill="#FFFFFF" cx="450.1" cy="55.9" r="4.1"/>
</g>
<g>
	<circle fill="#FFFFFF" cx="479.9" cy="49.2" r="4.1"/>
</g>
</svg>
